<svg xmlns="http://www.w3.org/2000/svg" viewBox="0 0 600 800" xmlns:c2pa="http://c2pa.org/manifest"><metadata><c2pa:manifest>AAAWgmp1bWIAAAAeanVtZGMycGEAEQAQgAAAqgA4m3EDYzJwYQAAABZcanVtYgAAAEdqdW1kYzJtYQARABCAAACqADibcQN1cm46YzJwYTpmNThlZDk0NC1lYzliLTQwNmEtOWQ2Zi0yMzAyMDJkZGU1MzcAAAADl2p1bWIAAAApanVtZGMyYXMAEQAQgAAAqgA4m3EDYzJwYS5hc3NlcnRpb25zAAAAALxqdW1iAAAARGp1bWRjYm9yABEAEIAAAKoAOJtxE2MycGEuaW5ncmVkaWVudC52MwAAAAAYYzJzaHgospIPzyhRUy2e2xi3oF4AAABwY2JvcqNpZGM6Zm9ybWF0bWltYWdlL3N2Zyt4bWxqaW5zdGFuY2VJRHgseG1wOmlpZDoyOTQ3YzllZS1mZjY3LTQzMjctODcxNy0xZmMyYjVjODQ5MDRscmVsYXRpb25zaGlwaHBhcmVudE9mAAAB4mp1bWIAAABBanVtZGNib3IAEQAQgAAAqgA4m3ETYzJwYS5hY3Rpb25zLnYyAAAAABhjMnNoUkWyMDik6xvcNr7QlK7aSAAAAZljYm9yomdhY3Rpb25zgqJmYWN0aW9ua2MycGEub3BlbmVkanBhcmFtZXRlcnOha2luZ3JlZGllbnRzgaJjdXJseC1zZWxmI2p1bWJmPWMycGEuYXNzZXJ0aW9ucy9jMnBhLmluZ3JlZGllbnQudjNkaGFzaFgg+fwZdm9JUsySOPGY4mDUJPUkJs+JS5CezlzfwLPoFsCkZmFjdGlvbngdY29tLmFudGhyb3BpYy5jbGF1ZGUucHJvdmlkZWRqcGFyYW1ldGVyc6F4H2NvbS5hbnRocm9waWMub3JpZ2luLWNvbmZpZGVuY2VndW5rbm93bmtkZXNjcmlwdGlvbnhmQ2xhdWRlIHByb3ZpZGVkIHRoaXMgZmlsZSBhdCB0aGUgcmVxdWVzdCBvZiBhIHVzZXIgYW5kIG1heSBoYXZlIGNyZWF0ZWQgb3IgbW9kaWZpZWQgdGhlIGZpbGUgY29udGVudHMubXNvZnR3YXJlQWdlbnShZG5hbWVmQ2xhdWRlcmFsbEFjdGlvbnNJbmNsdWRlZPUAAADIanVtYgAAAEBqdW1kY2JvcgARABCAAACqADibcRNjMnBhLmhhc2guZGF0YQAAAAAYYzJzaMILRZRTs2NekxvrxigZ33oAAACAY2JvcqVjYWxnZnNoYTI1NmNwYWRNAAAAAAAAAAAAAAAAAGRoYXNoWCCtoNbjLNEPbk0fkpaUlqLRBwXzREuVelGew0lk/4kgYmRuYW1lbmp1bWJmIG1hbmlmZXN0amV4Y2x1c2lvbnOBomVzdGFydBh9Zmxlbmd0aBkeBAAAAj5qdW1iAAAAJ2p1bWRjMmNsABEAEIAAAKoAOJtxA2MycGEuY2xhaW0udjIAAAACD2Nib3KlY2FsZ2ZzaGEyNTZpc2lnbmF0dXJleE1zZWxmI2p1bWJmPS9jMnBhL3VybjpjMnBhOmY1OGVkOTQ0LWVjOWItNDA2YS05ZDZmLTIzMDIwMmRkZTUzNy9jMnBhLnNpZ25hdHVyZWppbnN0YW5jZUlEeCx4bXA6aWlkOmZiN2ZhMGI0LTk5NWUtNDg0My05NmRkLTdiYjU2OGM1NmZiNHJjcmVhdGVkX2Fzc2VydGlvbnODomN1cmx4LXNlbGYjanVtYmY9YzJwYS5hc3NlcnRpb25zL2MycGEuaW5ncmVkaWVudC52M2RoYXNoWCD5/Bl2b0lSzJI48ZjiYNQk9SQmz4lLkJ7OXN/As+gWwKJjdXJseCpzZWxmI2p1bWJmPWMycGEuYXNzZXJ0aW9ucy9jMnBhLmFjdGlvbnMudjJkaGFzaFggWsrorM4odnqIFY2roV/OlLW53bVDOzj1fZaINnhuuyeiY3VybHgpc2VsZiNqdW1iZj1jMnBhLmFzc2VydGlvbnMvYzJwYS5oYXNoLmRhdGFkaGFzaFggKEkFyNZ7WnPSrx1aYfimc+FparRclVIJg66Za8NUwIh0Y2xhaW1fZ2VuZXJhdG9yX2luZm+jZG5hbWVvQW50aHJvcGljIEZpbGVzZ3ZlcnNpb25lMS4wLjBrc3BlY1ZlcnNpb25lMi40LjAAABA4anVtYgAAAChqdW1kYzJjcwARABCAAACqADibcQNjMnBhLnNpZ25hdHVyZQAAABAIY2JvctKEWQISogEmGCFZAgowggIGMIIBjaADAgECAhRA5aAK7sI50L64g/oGQgU9Z1UTADAKBggqhkjOPQQDAzBJMRcwFQYDVQQKEw5BbnRocm9waWMsIFBCQzEuMCwGA1UEAxMlQW50aHJvcGljIENvbnRlbnQgQ3JlZGVudGlhbHMgUm9vdCBDQTAeFw0yNjA4MDcxODQzNTZaFw0yODA4MDYxOTQzNTZaMEQxFzAVBgNVBAoTDkFudGhyb3BpYywgUEJDMSkwJwYDVQQDEyBBbnRocm9waWMgQ2xhdWRlIENvbnRlbnQgU2lnbmluZzBZMBMGByqGSM49AgEGCCqGSM49AwEHA0IABJh6CmvLUBgFFNU0vUKlOVtE6djd17L5SuwX0LemFisBM3dkd/3cyjxFA3Qo5S46fX0/ihY0VZ7mfb9KF703t5OjWDBWMA4GA1UdDwEB/wQEAwIHgDAVBgNVHSUEDjAMBgorBgEEAYPoXgIBMAwGA1UdEwEB/wQCMAAwHwYDVR0jBBgwFoAUzlHiBIFOZFsj+OPEz5o+nMHXXMIwCgYIKoZIzj0EAwMDZwAwZAIwMXMdFJ4BetLLVY7ORuE9noqbbAZOZn/aArXyTwFAZfKrPzxF2vPoJNf1+UCdg1XGAjBwX1zd9WGqYkqmL5SFqw1QySjr1zJfpJM9+1rdDwSPLMOPOjKuiXjoU/pUUeG9RwmhY3BhZFkNngAAAAAAAAAAAAAAAAAAAAAAAAAAAAAAAAAAAAAAAAAAAAAAAAAAAAAAAAAAAAAAAAAAAAAAAAAAAAAAAAAAAAAAAAAAAAAAAAAAAAAAAAAAAAAAAAAAAAAAAAAAAAAAAAAAAAAAAAAAAAAAAAAAAAAAAAAAAAAAAAAAAAAAAAAAAAAAAAAAAAAAAAAAAAAAAAAAAAAAAAAAAAAAAAAAAAAAAAAAAAAAAAAAAAAAAAAAAAAAAAAAAAAAAAAAAAAAAAAAAAAAAAAAAAAAAAAAAAAAAAAAAAAAAAAAAAAAAAAAAAAAAAAAAAAAAAAAAAAAAAAAAAAAAAAAAAAAAAAAAAAAAAAAAAAAAAAAAAAAAAAAAAAAAAAAAAAAAAAAAAAAAAAAAAAAAAAAAAAAAAAAAAAAAAAAAAAAAAAAAAAAAAAAAAAAAAAAAAAAAAAAAAAAAAAAAAAAAAAAAAAAAAAAAAAAAAAAAAAAAAAAAAAAAAAAAAAAAAAAAAAAAAAAAAAAAAAAAAAAAAAAAAAAAAAAAAAAAAAAAAAAAAAAAAAAAAAAAAAAAAAAAAAAAAAAAAAAAAAAAAAAAAAAAAAAAAAAAAAAAAAAAAAAAAAAAAAAAAAAAAAAAAAAAAAAAAAAAAAAAAAAAAAAAAAAAAAAAAAAAAAAAAAAAAAAAAAAAAAAAAAAAAAAAAAAAAAAAAAAAAAAAAAAAAAAAAAAAAAAAAAAAAAAAAAAAAAAAAAAAAAAAAAAAAAAAAAAAAAAAAAAAAAAAAAAAAAAAAAAAAAAAAAAAAAAAAAAAAAAAAAAAAAAAAAAAAAAAAAAAAAAAAAAAAAAAAAAAAAAAAAAAAAAAAAAAAAAAAAAAAAAAAAAAAAAAAAAAAAAAAAAAAAAAAAAAAAAAAAAAAAAAAAAAAAAAAAAAAAAAAAAAAAAAAAAAAAAAAAAAAAAAAAAAAAAAAAAAAAAAAAAAAAAAAAAAAAAAAAAAAAAAAAAAAAAAAAAAAAAAAAAAAAAAAAAAAAAAAAAAAAAAAAAAAAAAAAAAAAAAAAAAAAAAAAAAAAAAAAAAAAAAAAAAAAAAAAAAAAAAAAAAAAAAAAAAAAAAAAAAAAAAAAAAAAAAAAAAAAAAAAAAAAAAAAAAAAAAAAAAAAAAAAAAAAAAAAAAAAAAAAAAAAAAAAAAAAAAAAAAAAAAAAAAAAAAAAAAAAAAAAAAAAAAAAAAAAAAAAAAAAAAAAAAAAAAAAAAAAAAAAAAAAAAAAAAAAAAAAAAAAAAAAAAAAAAAAAAAAAAAAAAAAAAAAAAAAAAAAAAAAAAAAAAAAAAAAAAAAAAAAAAAAAAAAAAAAAAAAAAAAAAAAAAAAAAAAAAAAAAAAAAAAAAAAAAAAAAAAAAAAAAAAAAAAAAAAAAAAAAAAAAAAAAAAAAAAAAAAAAAAAAAAAAAAAAAAAAAAAAAAAAAAAAAAAAAAAAAAAAAAAAAAAAAAAAAAAAAAAAAAAAAAAAAAAAAAAAAAAAAAAAAAAAAAAAAAAAAAAAAAAAAAAAAAAAAAAAAAAAAAAAAAAAAAAAAAAAAAAAAAAAAAAAAAAAAAAAAAAAAAAAAAAAAAAAAAAAAAAAAAAAAAAAAAAAAAAAAAAAAAAAAAAAAAAAAAAAAAAAAAAAAAAAAAAAAAAAAAAAAAAAAAAAAAAAAAAAAAAAAAAAAAAAAAAAAAAAAAAAAAAAAAAAAAAAAAAAAAAAAAAAAAAAAAAAAAAAAAAAAAAAAAAAAAAAAAAAAAAAAAAAAAAAAAAAAAAAAAAAAAAAAAAAAAAAAAAAAAAAAAAAAAAAAAAAAAAAAAAAAAAAAAAAAAAAAAAAAAAAAAAAAAAAAAAAAAAAAAAAAAAAAAAAAAAAAAAAAAAAAAAAAAAAAAAAAAAAAAAAAAAAAAAAAAAAAAAAAAAAAAAAAAAAAAAAAAAAAAAAAAAAAAAAAAAAAAAAAAAAAAAAAAAAAAAAAAAAAAAAAAAAAAAAAAAAAAAAAAAAAAAAAAAAAAAAAAAAAAAAAAAAAAAAAAAAAAAAAAAAAAAAAAAAAAAAAAAAAAAAAAAAAAAAAAAAAAAAAAAAAAAAAAAAAAAAAAAAAAAAAAAAAAAAAAAAAAAAAAAAAAAAAAAAAAAAAAAAAAAAAAAAAAAAAAAAAAAAAAAAAAAAAAAAAAAAAAAAAAAAAAAAAAAAAAAAAAAAAAAAAAAAAAAAAAAAAAAAAAAAAAAAAAAAAAAAAAAAAAAAAAAAAAAAAAAAAAAAAAAAAAAAAAAAAAAAAAAAAAAAAAAAAAAAAAAAAAAAAAAAAAAAAAAAAAAAAAAAAAAAAAAAAAAAAAAAAAAAAAAAAAAAAAAAAAAAAAAAAAAAAAAAAAAAAAAAAAAAAAAAAAAAAAAAAAAAAAAAAAAAAAAAAAAAAAAAAAAAAAAAAAAAAAAAAAAAAAAAAAAAAAAAAAAAAAAAAAAAAAAAAAAAAAAAAAAAAAAAAAAAAAAAAAAAAAAAAAAAAAAAAAAAAAAAAAAAAAAAAAAAAAAAAAAAAAAAAAAAAAAAAAAAAAAAAAAAAAAAAAAAAAAAAAAAAAAAAAAAAAAAAAAAAAAAAAAAAAAAAAAAAAAAAAAAAAAAAAAAAAAAAAAAAAAAAAAAAAAAAAAAAAAAAAAAAAAAAAAAAAAAAAAAAAAAAAAAAAAAAAAAAAAAAAAAAAAAAAAAAAAAAAAAAAAAAAAAAAAAAAAAAAAAAAAAAAAAAAAAAAAAAAAAAAAAAAAAAAAAAAAAAAAAAAAAAAAAAAAAAAAAAAAAAAAAAAAAAAAAAAAAAAAAAAAAAAAAAAAAAAAAAAAAAAAAAAAAAAAAAAAAAAAAAAAAAAAAAAAAAAAAAAAAAAAAAAAAAAAAAAAAAAAAAAAAAAAAAAAAAAAAAAAAAAAAAAAAAAAAAAAAAAAAAAAAAAAAAAAAAAAAAAAAAAAAAAAAAAAAAAAAAAAAAAAAAAAAAAAAAAAAAAAAAAAAAAAAAAAAAAAAAAAAAAAAAAAAAAAAAAAAAAAAAAAAAAAAAAAAAAAAAAAAAAAAAAAAAAAAAAAAAAAAAAAAAAAAAAAAAAAAAAAAAAAAAAAAAAAAAAAAAAAAAAAAAAAAAAAAAAAAAAAAAAAAAAAAAAAAAAAAAAAAAAAAAAAAAAAAAAAAAAAAAAAAAAAAAAAAAAAAAAAAAAAAAAAAAAAAAAAAAAAAAAAAAAAAAAAAAAAAAAAAAAAAAAAAAAAAAAAAAAAAAAAAAAAAAAAAAAAAAAAAAAAAAAAAAAAAAAAAAAAAAAAAAAAAAAAAAAAAAAAAAAAAAAAAAAAAAAAAAAAAAAAAAAAAAAAAAAAAAAAAAAAAAAAAAAAAAAAAAAAAAAAAAAAAAAAAAAAAAAAAAAAAAAAAAAAAAAAAAAAAAAAAAAAAAAAAAAAAAAAAAAAAAAAAAAAAAAAAAAAAAAAAAAAAAAAAAAAAAAAAAAAAAAAAAAAAAAAAAAAAAAAAAAAAAAAAAAAAAAAAAAAAAAAAAAAAAAAAAAAAAAAAAAAAAAAAAAAAAAAAAAAAAAAAAAAAAAAAAAAAAAAAAAAAAAAAAAAAAAAAAAAAAAAAAAAAAAAAAAAAAAAAAAAAAAAAAAAAAAAAAAAAAAAAAAAAAAAAAAAAAAAAAAAAAAAAAAAAAAAAAAAAAAAAAAAAAAAAAAAAAAAAAAAAAAAAAAAAAAAAAAAAAAAAAAAAAAAAAAAAAAAAAAAAAAAAAAAAAAAAAAAAAAAAAAAAAAAAAAAAAAAAAAAAAAAAAAAAAAAAAAAAAAAAAAAAAAAAAAAAAAAAAAAAAAAAAAAAAAAAAAAAAAAAAAAAAAAAAAAAAAAAAAAAAAAAAAAAAAAAAAAAAAAAAAAAAAAAAAAAAAAAAAAAAAAAAAAAAAAAAAAAAAAAAAAAAAAAAAAAAAAAAAAAAAAAAAAAAAAAAAAAAAAAAAAAAAAAAAAAAAAAAAAAAAAAAAAAAAAAAAAAAAAAAAAAAAAAAAAAAAAAAAAAAAAAAAAAAAAAAAAAAAAAAAAAAAAAAAAAAAAAAAAAAAAAAAAAAAAAAAAAAAAAAAAAAAAAAAAAAAAAAAAAAAAAAAAAAAAAAAAAAAAAAAAAAAAAAAAAAAAAAAAAAAAAAAAAAAAAAAAAAAAAAAAAAAAAAAAAAAAAAAAAAAAAAAAAAAAAAAAAAAAAAAAAAAAAAAAAAAAAAAAAAAAAAAAAAAAAAAAAAAAAAAAAAAAAAAAAAAAAAAAAAAAAAAAAAAAAAAAAAAAAAAAAAAAAAAAAAAAAAAAAAAAAAAAAAAAAAAAAAAAAAAAAAAAAAAAAAAAAAAAAAAAAAAAAAAAAAAAAAAAAAAAAAAAAAAAAAAAAAAAAAAAAAAAAAAAAAAAAAAAAAAAAAAAAAAAAAAAAAAAAAAAAAAAAAAAAAAAAAAAAAAAAAAAAAAAAAAAAAAAAAAAAAAAAAAAAAAAAAAAAAAAAAAAAAAAAAAAAAAAAAAAAAAAAAAAAAAAAAAAAAAAAAAAAAAAAAAAAAAAAAAAAAAAAAAAAAAAAAAAAAAAAAAAAAAAAAAAAAAAAAAAAAAAAAAAAAAAAAAAAAAAAAAAAAAAAAAAAAAAAAAAAAAAAAAAAAAAAAAAAAAAAAAAAAAAAAAAAPZYQB61wCggofrrGEzPZjhWv71/EJkyTj1TOp3DWzyXYKZP2Q7TJ9/UYSzo9/5fKunR7zfIXRewkXXRyJ3SvMLDa8U=</c2pa:manifest></metadata>
<rect width="600" height="800" fill="#2B2F6B"/>
<rect x="28" y="28" width="544" height="744" rx="18" fill="none" stroke="#FFFFFF" stroke-opacity="0.55" stroke-width="3"/>
<circle cx="169" cy="431" r="6" fill="#9FB8E8"/><rect x="340" y="474" width="10" height="22" rx="3" fill="#7FD1B9" transform="rotate(42 340 474)"/><rect x="548" y="379" width="10" height="22" rx="3" fill="#FFF6EA" transform="rotate(115 548 379)"/><rect x="125" y="494" width="10" height="22" rx="3" fill="#FFF6EA" transform="rotate(3 125 494)"/><rect x="439" y="162" width="10" height="22" rx="3" fill="#FFF6EA" transform="rotate(140 439 162)"/><circle cx="462" cy="239" r="8" fill="#FFF6EA"/><circle cx="407" cy="695" r="6" fill="#7FD1B9"/><rect x="532" y="144" width="10" height="22" rx="3" fill="#9FB8E8" transform="rotate(24 532 144)"/><circle cx="158" cy="726" r="7" fill="#7FD1B9"/><rect x="261" y="633" width="10" height="22" rx="3" fill="#FFF6EA" transform="rotate(105 261 633)"/><circle cx="342" cy="683" r="8" fill="#FFB547"/><circle cx="386" cy="164" r="8" fill="#9FB8E8"/><circle cx="335" cy="550" r="8" fill="#E07A8F"/><circle cx="184" cy="137" r="8" fill="#7FD1B9"/><circle cx="94" cy="610" r="4" fill="#7FD1B9"/><rect x="264" y="341" width="10" height="22" rx="3" fill="#FFB547" transform="rotate(111 264 341)"/><circle cx="72" cy="553" r="8" fill="#9FB8E8"/><rect x="190" y="215" width="10" height="22" rx="3" fill="#FFB547" transform="rotate(14 190 215)"/><circle cx="350" cy="72" r="5" fill="#E07A8F"/><rect x="182" y="533" width="10" height="22" rx="3" fill="#9FB8E8" transform="rotate(173 182 533)"/><circle cx="498" cy="314" r="6" fill="#7FD1B9"/><circle cx="483" cy="527" r="8" fill="#FFB547"/><circle cx="304" cy="352" r="6" fill="#E07A8F"/><rect x="179" y="262" width="10" height="22" rx="3" fill="#9FB8E8" transform="rotate(75 179 262)"/><circle cx="340" cy="64" r="5" fill="#FFF6EA"/><circle cx="367" cy="283" r="5" fill="#9FB8E8"/><circle cx="403" cy="567" r="8" fill="#FFB547"/><rect x="61" y="308" width="10" height="22" rx="3" fill="#7FD1B9" transform="rotate(108 61 308)"/><circle cx="139" cy="180" r="5" fill="#9FB8E8"/><circle cx="444" cy="123" r="7" fill="#FFB547"/><rect x="116" y="400" width="10" height="22" rx="3" fill="#9FB8E8" transform="rotate(34 116 400)"/><circle cx="268" cy="539" r="8" fill="#FFB547"/><rect x="387" y="207" width="10" height="22" rx="3" fill="#E07A8F" transform="rotate(134 387 207)"/><rect x="159" y="448" width="10" height="22" rx="3" fill="#9FB8E8" transform="rotate(22 159 448)"/><rect x="315" y="184" width="10" height="22" rx="3" fill="#FFF6EA" transform="rotate(50 315 184)"/><rect x="454" y="499" width="10" height="22" rx="3" fill="#FFF6EA" transform="rotate(23 454 499)"/><rect x="196" y="606" width="10" height="22" rx="3" fill="#9FB8E8" transform="rotate(114 196 606)"/><circle cx="195" cy="448" r="5" fill="#FFB547"/><circle cx="52" cy="710" r="6" fill="#FFF6EA"/><rect x="525" y="699" width="10" height="22" rx="3" fill="#E07A8F" transform="rotate(82 525 699)"/><circle cx="427" cy="574" r="8" fill="#9FB8E8"/><rect x="481" y="651" width="10" height="22" rx="3" fill="#9FB8E8" transform="rotate(44 481 651)"/><circle cx="68" cy="612" r="8" fill="#FFF6EA"/><rect x="500" y="454" width="10" height="22" rx="3" fill="#FFB547" transform="rotate(22 500 454)"/><circle cx="302" cy="217" r="6" fill="#FFB547"/><rect x="520" y="479" width="10" height="22" rx="3" fill="#9FB8E8" transform="rotate(175 520 479)"/><rect x="320" y="618" width="10" height="22" rx="3" fill="#FFB547" transform="rotate(36 320 618)"/><rect x="317" y="622" width="10" height="22" rx="3" fill="#E07A8F" transform="rotate(49 317 622)"/><rect x="495" y="140" width="10" height="22" rx="3" fill="#FFB547" transform="rotate(103 495 140)"/><rect x="250" y="580" width="10" height="22" rx="3" fill="#E07A8F" transform="rotate(95 250 580)"/><circle cx="261" cy="381" r="7" fill="#FFB547"/><circle cx="73" cy="85" r="7" fill="#7FD1B9"/><rect x="93" y="401" width="10" height="22" rx="3" fill="#9FB8E8" transform="rotate(13 93 401)"/><rect x="243" y="323" width="10" height="22" rx="3" fill="#9FB8E8" transform="rotate(34 243 323)"/><rect x="214" y="137" width="10" height="22" rx="3" fill="#FFF6EA" transform="rotate(130 214 137)"/><rect x="448" y="447" width="10" height="22" rx="3" fill="#FFB547" transform="rotate(109 448 447)"/><circle cx="441" cy="316" r="6" fill="#FFB547"/><rect x="236" y="397" width="10" height="22" rx="3" fill="#9FB8E8" transform="rotate(125 236 397)"/><rect x="280" y="222" width="10" height="22" rx="3" fill="#FFF6EA" transform="rotate(106 280 222)"/><circle cx="452" cy="207" r="8" fill="#E07A8F"/><rect x="237" y="678" width="10" height="22" rx="3" fill="#9FB8E8" transform="rotate(124 237 678)"/><circle cx="520" cy="562" r="7" fill="#FFF6EA"/><circle cx="417" cy="445" r="7" fill="#FFB547"/><rect x="287" y="215" width="10" height="22" rx="3" fill="#7FD1B9" transform="rotate(17 287 215)"/><circle cx="100" cy="666" r="5" fill="#E07A8F"/><circle cx="476" cy="68" r="7" fill="#FFB547"/><rect x="526" y="455" width="10" height="22" rx="3" fill="#FFB547" transform="rotate(138 526 455)"/><circle cx="306" cy="551" r="4" fill="#FFB547"/><rect x="327" y="435" width="10" height="22" rx="3" fill="#FFF6EA" transform="rotate(14 327 435)"/><circle cx="549" cy="502" r="7" fill="#7FD1B9"/><polygon points="300.0,280.0 331.7,356.3 414.1,362.9 351.4,416.7 370.5,497.1 300.0,454.0 229.5,497.1 248.6,416.7 185.9,362.9 268.3,356.3" fill="#FFB547"/><polygon points="300.0,340.0 315.9,378.2 357.1,381.5 325.7,408.3 335.3,448.5 300.0,427.0 264.7,448.5 274.3,408.3 242.9,381.5 284.1,378.2" fill="#FFD27A"/><polygon points="160.0,186.0 169.0,207.6 192.3,209.5 174.6,224.7 180.0,247.5 160.0,235.3 140.0,247.5 145.4,224.7 127.7,209.5 151.0,207.6" fill="#FFF6EA"/><polygon points="450.0,560.0 460.6,585.4 488.0,587.6 467.1,605.6 473.5,632.4 450.0,618.0 426.5,632.4 432.9,605.6 412.0,587.6 439.4,585.4" fill="#FFF6EA"/>
</svg>